<?xml version="1.0" encoding="UTF-8" standalone="no"?><svg xmlns="http://www.w3.org/2000/svg" xmlns:xlink="http://www.w3.org/1999/xlink" contentStyleType="text/css" height="562px" preserveAspectRatio="none" style="width:308px;height:562px;background:#00000000;" version="1.1" viewBox="0 0 308 562" width="308px" zoomAndPan="magnify"><defs/><g><ellipse cx="106.5" cy="20" fill="#222222" rx="10" ry="10" style="stroke:#222222;stroke-width:1.0;"/><rect fill="#F1F1F1" height="33.9688" rx="12.5" ry="12.5" style="stroke:#181818;stroke-width:0.5;" width="128" x="42.5" y="50"/><text fill="#000000" font-family="sans-serif" font-size="12" lengthAdjust="spacing" textLength="108" x="52.5" y="71.1387">Fetch DataFrame</text><rect fill="#F1F1F1" height="47.9375" rx="12.5" ry="12.5" style="stroke:#181818;stroke-width:0.5;" width="99" x="57" y="103.9688"/><text fill="#000000" font-family="sans-serif" font-size="12" lengthAdjust="spacing" textLength="75" x="67" y="125.1074">[Define final</text><text fill="#000000" font-family="sans-serif" font-size="12" lengthAdjust="spacing" textLength="74" x="69.5" y="139.0762">DataFrame]</text><rect fill="#F1F1F1" height="47.9375" rx="12.5" ry="12.5" style="stroke:#181818;stroke-width:0.5;" width="137" x="38" y="239.8438"/><text fill="#000000" font-family="sans-serif" font-size="12" lengthAdjust="spacing" textLength="113" x="48" y="260.9824">create correlation</text><text fill="#000000" font-family="sans-serif" font-size="12" lengthAdjust="spacing" textLength="69" x="72" y="274.9512">DataFrame</text><rect fill="#F1F1F1" height="47.9375" rx="12.5" ry="12.5" style="stroke:#181818;stroke-width:0.5;" width="141" x="36" y="309.75"/><text fill="#000000" font-family="sans-serif" font-size="12" lengthAdjust="spacing" textLength="117" x="46" y="330.8887">reshap DataFrame</text><text fill="#000000" font-family="sans-serif" font-size="12" lengthAdjust="spacing" textLength="70" x="71.5" y="344.8574">to 1 record</text><rect fill="#F1F1F1" height="33.9688" rx="12.5" ry="12.5" style="stroke:#181818;stroke-width:0.5;" width="191" x="11" y="377.6875"/><text fill="#000000" font-family="sans-serif" font-size="12" lengthAdjust="spacing" textLength="171" x="21" y="398.8262">concat with final dataframe</text><rect fill="#F1F1F1" height="47.9375" rx="12.5" ry="12.5" style="stroke:#181818;stroke-width:0.5;" width="153" x="30" y="171.9063"/><text fill="#000000" font-family="sans-serif" font-size="12" lengthAdjust="spacing" textLength="129" x="40" y="193.0449">calculate correlation</text><text fill="#000000" font-family="sans-serif" font-size="12" lengthAdjust="spacing" textLength="106" x="53.5" y="207.0137">URLs each visitor</text><polygon fill="#F1F1F1" points="74,431.6563,139,431.6563,151,443.6563,139,455.6563,74,455.6563,62,443.6563,74,431.6563" style="stroke:#181818;stroke-width:0.5;"/><text fill="#000000" font-family="sans-serif" font-size="11" lengthAdjust="spacing" textLength="65" x="74" y="447.4644">more data?</text><rect fill="#F1F1F1" height="33.9688" rx="12.5" ry="12.5" style="stroke:#181818;stroke-width:0.5;" width="85" x="212" y="297.7813"/><text fill="#000000" font-family="sans-serif" font-size="12" lengthAdjust="spacing" textLength="61" x="226" y="318.9199">Next User</text><rect fill="#F1F1F1" height="33.9688" rx="12.5" ry="12.5" style="stroke:#181818;stroke-width:0.5;" width="171" x="21" y="475.6563"/><text fill="#000000" font-family="sans-serif" font-size="12" lengthAdjust="spacing" textLength="151" x="31" y="496.7949">fillna value of dataframe</text><ellipse cx="106.5" cy="540.625" rx="11" ry="11" style="stroke:#222222;stroke-width:1.0;fill:none;"/><ellipse cx="106.5" cy="540.625" fill="#222222" rx="6" ry="6" style="stroke:#111111;stroke-width:1.0;"/><line style="stroke:#181818;stroke-width:1.0;" x1="106.5" x2="106.5" y1="30" y2="50"/><polygon fill="#181818" points="102.5,40,106.5,50,110.5,40,106.5,44" style="stroke:#181818;stroke-width:1.0;"/><line style="stroke:#181818;stroke-width:1.0;" x1="106.5" x2="106.5" y1="83.9688" y2="103.9688"/><polygon fill="#181818" points="102.5,93.9688,106.5,103.9688,110.5,93.9688,106.5,97.9688" style="stroke:#181818;stroke-width:1.0;"/><line style="stroke:#181818;stroke-width:1.0;" x1="106.5" x2="106.5" y1="287.7813" y2="309.75"/><polygon fill="#181818" points="102.5,299.75,106.5,309.75,110.5,299.75,106.5,303.75" style="stroke:#181818;stroke-width:1.0;"/><line style="stroke:#181818;stroke-width:1.0;" x1="106.5" x2="106.5" y1="357.6875" y2="377.6875"/><polygon fill="#181818" points="102.5,367.6875,106.5,377.6875,110.5,367.6875,106.5,371.6875" style="stroke:#181818;stroke-width:1.0;"/><line style="stroke:#181818;stroke-width:1.0;" x1="106.5" x2="106.5" y1="219.8438" y2="239.8438"/><polygon fill="#181818" points="102.5,229.8438,106.5,239.8438,110.5,229.8438,106.5,233.8438" style="stroke:#181818;stroke-width:1.0;"/><line style="stroke:#181818;stroke-width:1.0;" x1="151" x2="254.5" y1="443.6563" y2="443.6563"/><line style="stroke:#181818;stroke-width:1.0;" x1="254.5" x2="254.5" y1="331.75" y2="443.6563"/><polygon fill="#181818" points="250.5,341.75,254.5,331.75,258.5,341.75,254.5,337.75" style="stroke:#181818;stroke-width:1.0;"/><line style="stroke:#181818;stroke-width:1.0;" x1="254.5" x2="254.5" y1="195.875" y2="297.7813"/><line style="stroke:#181818;stroke-width:1.0;" x1="254.5" x2="183" y1="195.875" y2="195.875"/><polygon fill="#181818" points="193,191.875,183,195.875,193,199.875,189,195.875" style="stroke:#181818;stroke-width:1.0;"/><line style="stroke:#181818;stroke-width:1.0;" x1="106.5" x2="106.5" y1="411.6563" y2="431.6563"/><polygon fill="#181818" points="102.5,421.6563,106.5,431.6563,110.5,421.6563,106.5,425.6563" style="stroke:#181818;stroke-width:1.0;"/><line style="stroke:#181818;stroke-width:1.0;" x1="106.5" x2="106.5" y1="151.9063" y2="171.9063"/><polygon fill="#181818" points="102.5,161.9063,106.5,171.9063,110.5,161.9063,106.5,165.9063" style="stroke:#181818;stroke-width:1.0;"/><line style="stroke:#181818;stroke-width:1.0;" x1="106.5" x2="106.5" y1="455.6563" y2="475.6563"/><polygon fill="#181818" points="102.5,465.6563,106.5,475.6563,110.5,465.6563,106.5,469.6563" style="stroke:#181818;stroke-width:1.0;"/><line style="stroke:#181818;stroke-width:1.0;" x1="106.5" x2="106.5" y1="509.625" y2="529.625"/><polygon fill="#181818" points="102.5,519.625,106.5,529.625,110.5,519.625,106.5,523.625" style="stroke:#181818;stroke-width:1.0;"/><!--MD5=[77bd0d248a147eb7d58bfc136b54745f]
@startuml
skinparam defaultTextAlignment center
skinparam monochrome true
skinparam backgroundColor transparent
start
:Fetch DataFrame;
:[Define final \nDataFrame];
repeat :calculate correlation \nURLs each visitor;
  :create correlation \nDataFrame;
  :reshap DataFrame \nto 1 record;  
  :concat with final dataframe;
  backward: Next User;
repeat while (more data?)
:fillna value of dataframe;
stop
@enduml

PlantUML version 1.2022.4(Sat Apr 09 13:29:17 UTC 2022)
(GPL source distribution)
Java Runtime: OpenJDK Runtime Environment
JVM: OpenJDK 64-Bit Server VM
Default Encoding: UTF-8
Language: en
Country: US
--></g></svg>